# xmcd
#
# Track frame offsets: 
#        150
#        11830
#        31882
#        57082
#        83000
#        96102
#        113965
#        132630
#
# Disc length: 2055 seconds
#
# Revision: 0
# Processed by: cddbd v1.5.2PL0 Copyright (c) Steve Scherf et al.
# Submitted via: ExactAudioCopy v0.99pb4
#
DISCID=62080508
DTITLE=Mitch Malloy - My House
DYEAR=1995
DGENRE=Country
TTITLE0=Everyday Love
TTITLE1=Lonesome Bound
TTITLE2=Where Love Is No Stranger
TTITLE3=Heaven Sent
TTITLE4=(I Wanna) Live Uo To Your Love
TTITLE5=Nobody Wins In This War
TTITLE6=The Lonesome Side
TTITLE7=My Heart's In Tennessee
EXTD=
EXTT0=
EXTT1=
EXTT2=
EXTT3=
EXTT4=
EXTT5=
EXTT6=
EXTT7=
PLAYORDER=
